<svg width="361.3599365234375px" height="359.61754150390624px" xmlns="http://www.w3.org/2000/svg" viewBox="69.32003173828124 -104.80877075195312 361.3599365234375 359.61754150390624" style="background: rgb(255, 255, 255);" preserveAspectRatio="xMidYMid"><defs><filter id="editing-hole" x="-100%" y="-100%" width="300%" height="300%"><feFlood flood-color="#000000" result="black"></feFlood><feMorphology operator="dilate" radius="2" in="SourceGraphic" result="erode"></feMorphology><feGaussianBlur in="erode" stdDeviation="4" result="blur"></feGaussianBlur><feOffset in="blur" dx="2" dy="2" result="offset"></feOffset><feComposite operator="atop" in="offset" in2="black" result="merge"></feComposite><feComposite operator="in" in="merge" in2="SourceGraphic" result="inner-shadow"></feComposite></filter></defs><g filter="url(#editing-hole)"><g transform="translate(124.59500026702881, 137.11999893188477)"><path d="M52.33-124.07L52.33-124.07Q72.62-124.07 87.49-116.50L87.49-116.50L87.49-116.50Q102.35-108.94 110.27-94.87L110.27-94.87L110.27-94.87Q118.19-80.81 118.19-61.77L118.19-61.77L118.19-61.77Q118.19-42.72 110.27-28.75L110.27-28.75L110.27-28.75Q102.35-14.77 87.49-7.39L87.49-7.39L87.49-7.39Q72.62 0 52.33 0L52.33 0L13.71 0L13.71-124.07L52.33-124.07ZM52.33-12.46L52.33-12.46Q76.18-12.46 88.91-25.54L88.91-25.54L88.91-25.54Q101.64-38.63 101.64-61.77L101.64-61.77L101.64-61.77Q101.64-84.91 88.91-97.90L88.91-97.90L88.91-97.90Q76.18-110.89 52.33-110.89L52.33-110.89L29.90-110.89L29.90-12.46L52.33-12.46ZM237.10-124.24L237.10 0L220.90 0L155.75-98.79L155.75 0L139.55 0L139.55-124.24L155.75-124.24L220.90-25.63L220.90-124.24L237.10-124.24Z" fill="#000000"></path></g></g><style>text {
  font-size: 64px;
  font-family: Arial Black;
  dominant-baseline: central;
  text-anchor: middle;
}</style></svg>